<svg width="24" height="24" viewBox="0 0 24 24" fill="none" xmlns="http://www.w3.org/2000/svg">
<g id="heroicons-solid:menu-alt-3">
<path id="Vector" fill-rule="evenodd" clip-rule="evenodd" d="M3.60001 5.99999C3.60001 5.68173 3.72643 5.3765 3.95148 5.15146C4.17652 4.92642 4.48175 4.79999 4.80001 4.79999H19.2C19.5183 4.79999 19.8235 4.92642 20.0485 5.15146C20.2736 5.3765 20.4 5.68173 20.4 5.99999C20.4 6.31825 20.2736 6.62347 20.0485 6.84852C19.8235 7.07356 19.5183 7.19999 19.2 7.19999H4.80001C4.48175 7.19999 4.17652 7.07356 3.95148 6.84852C3.72643 6.62347 3.60001 6.31825 3.60001 5.99999ZM3.60001 12C3.60001 11.6817 3.72643 11.3765 3.95148 11.1515C4.17652 10.9264 4.48175 10.8 4.80001 10.8H19.2C19.5183 10.8 19.8235 10.9264 20.0485 11.1515C20.2736 11.3765 20.4 11.6817 20.4 12C20.4 12.3182 20.2736 12.6235 20.0485 12.8485C19.8235 13.0736 19.5183 13.2 19.2 13.2H4.80001C4.48175 13.2 4.17652 13.0736 3.95148 12.8485C3.72643 12.6235 3.60001 12.3182 3.60001 12ZM10.8 18C10.8 17.6817 10.9264 17.3765 11.1515 17.1515C11.3765 16.9264 11.6817 16.8 12 16.8H19.2C19.5183 16.8 19.8235 16.9264 20.0485 17.1515C20.2736 17.3765 20.4 17.6817 20.4 18C20.4 18.3182 20.2736 18.6235 20.0485 18.8485C19.8235 19.0736 19.5183 19.2 19.2 19.2H12C11.6817 19.2 11.3765 19.0736 11.1515 18.8485C10.9264 18.6235 10.8 18.3182 10.8 18Z" fill="#344054"/>
</g>
</svg>
