<svg width="20" height="21" viewBox="0 0 20 21" fill="none" xmlns="http://www.w3.org/2000/svg">
<g id="mage:attachment">
<path id="Vector" d="M10.79 6.59001L6.18334 11.1958C5.77579 11.6035 5.54687 12.1564 5.54695 12.7328C5.54703 13.3092 5.77609 13.862 6.18375 14.2696C6.59141 14.6771 7.14428 14.9061 7.72072 14.906C8.29716 14.9059 8.84996 14.6768 9.2575 14.2692L14.2425 9.28418C14.597 8.93194 14.8783 8.51308 15.0702 8.05171C15.2622 7.59034 15.361 7.09556 15.361 6.59585C15.361 6.09614 15.2622 5.60136 15.0702 5.13998C14.8783 4.67861 14.597 4.25975 14.2425 3.90751C13.5256 3.2122 12.5633 2.82785 11.5647 2.83799C10.5661 2.84814 9.61177 3.25195 8.90917 3.96168L3.88084 8.89335C2.8968 9.91862 2.35383 11.2888 2.36845 12.7098C2.38307 14.1308 2.9541 15.4895 3.95903 16.4943C4.96395 17.4991 6.3227 18.07 7.74372 18.0845C9.16475 18.0989 10.5348 17.5558 11.56 16.5717L17.7075 10.4783" stroke="#fff" stroke-width="1.25" stroke-linecap="round" stroke-linejoin="round"/>
</g>
</svg>
