<svg width="20" height="20" viewBox="0 0 20 20" fill="none" xmlns="http://www.w3.org/2000/svg">
<g id="uil:science">
<path id="Vector" d="M18.3332 9.16667C18.3356 8.5793 18.1827 8.00175 17.89 7.49249C17.5973 6.98323 17.1753 6.56035 16.6666 6.26667C16.6791 6.1225 16.6791 5.97751 16.6666 5.83334C16.6666 5.1703 16.4032 4.53441 15.9343 4.06557C15.4655 3.59673 14.8296 3.33334 14.1666 3.33334H14.0166C13.8778 2.9486 13.6467 2.60378 13.3437 2.32913C13.0406 2.05447 12.6748 1.85837 12.2783 1.75801C11.8818 1.65765 11.4667 1.6561 11.0695 1.75351C10.6723 1.85091 10.305 2.04428 9.9999 2.31667C9.69481 2.04428 9.32753 1.85091 8.9303 1.75351C8.53307 1.6561 8.118 1.65765 7.7215 1.75801C7.325 1.85837 6.95918 2.05447 6.65612 2.32913C6.35306 2.60378 6.12201 2.9486 5.98324 3.33334H5.83324C5.1702 3.33334 4.53431 3.59673 4.06547 4.06557C3.59663 4.53441 3.33324 5.1703 3.33324 5.83334C3.3207 5.97751 3.3207 6.1225 3.33324 6.26667C2.86029 6.534 2.45985 6.91287 2.16677 7.37032C1.8737 7.82776 1.69687 8.3499 1.65169 8.89129C1.6065 9.43268 1.69433 9.97691 1.90752 10.4766C2.12072 10.9763 2.45281 11.4163 2.87491 11.7583C2.6018 12.2677 2.46583 12.8394 2.48036 13.4172C2.49489 13.995 2.6594 14.5591 2.95776 15.0541C3.25611 15.5491 3.67806 15.958 4.18218 16.2408C4.6863 16.5235 5.25527 16.6702 5.83324 16.6667H5.98324C6.12201 17.0514 6.35306 17.3962 6.65612 17.6709C6.95918 17.9455 7.325 18.1416 7.7215 18.242C8.118 18.3424 8.53307 18.3439 8.9303 18.2465C9.32753 18.1491 9.69481 17.9557 9.9999 17.6833C10.305 17.9557 10.6723 18.1491 11.0695 18.2465C11.4667 18.3439 11.8818 18.3424 12.2783 18.242C12.6748 18.1416 13.0406 17.9455 13.3437 17.6709C13.6467 17.3962 13.8778 17.0514 14.0166 16.6667H14.1666C14.741 16.663 15.3048 16.511 15.8031 16.2253C16.3015 15.9397 16.7176 15.5301 17.0111 15.0362C17.3045 14.5424 17.4654 13.9811 17.478 13.4068C17.4907 12.8324 17.3547 12.2646 17.0832 11.7583C17.4719 11.4471 17.786 11.0528 18.0023 10.6043C18.2186 10.1558 18.3317 9.66459 18.3332 9.16667ZM9.16657 7.125C8.98507 7.0212 8.79558 6.93202 8.59991 6.85834C8.38994 6.78761 8.16048 6.80319 7.96201 6.90165C7.76353 7.00011 7.6123 7.17337 7.54157 7.38334C7.47085 7.5933 7.48643 7.82276 7.58488 8.02123C7.68334 8.21971 7.85661 8.37095 8.06657 8.44167C8.38736 8.55764 8.66483 8.76925 8.86154 9.04792C9.05825 9.32659 9.16472 9.65891 9.16657 10V11.2917C8.98507 11.1879 8.79558 11.0987 8.59991 11.025C8.38994 10.9543 8.16048 10.9699 7.96201 11.0683C7.76353 11.1668 7.6123 11.34 7.54157 11.55C7.47085 11.76 7.48643 11.9894 7.58488 12.1879C7.68334 12.3864 7.85661 12.5376 8.06657 12.6083C8.38736 12.7243 8.66483 12.9359 8.86154 13.2146C9.05825 13.4933 9.16472 13.8256 9.16657 14.1667V15.8333C9.16657 16.0544 9.07877 16.2663 8.92249 16.4226C8.76621 16.5789 8.55425 16.6667 8.33324 16.6667C8.17202 16.6656 8.01456 16.6178 7.87996 16.5291C7.74536 16.4403 7.63939 16.3144 7.5749 16.1667C7.71464 16.0847 7.84831 15.9928 7.9749 15.8917C8.05917 15.8216 8.12881 15.7357 8.17986 15.6387C8.23091 15.5418 8.26236 15.4357 8.27242 15.3266C8.28248 15.2175 8.27095 15.1075 8.23849 15.0028C8.20603 14.8982 8.15328 14.8009 8.08324 14.7167C8.0132 14.6324 7.92725 14.5628 7.8303 14.5117C7.73334 14.4607 7.62728 14.4292 7.51818 14.4192C7.40907 14.4091 7.29904 14.4206 7.19439 14.4531C7.08974 14.4855 6.9925 14.5383 6.90824 14.6083C6.60735 14.8616 6.22656 15.0004 5.83324 15C5.39121 15 4.96729 14.8244 4.65473 14.5118C4.34217 14.1993 4.16657 13.7754 4.16657 13.3333C4.17056 13.0197 4.26299 12.7135 4.43324 12.45C4.62026 12.4835 4.8099 12.5003 4.99991 12.5C5.22092 12.5 5.43288 12.4122 5.58916 12.2559C5.74544 12.0996 5.83324 11.8877 5.83324 11.6667C5.83324 11.4457 5.74544 11.2337 5.58916 11.0774C5.43288 10.9211 5.22092 10.8333 4.99991 10.8333C4.80306 10.8345 4.60784 10.7977 4.42491 10.725C4.12519 10.6169 3.86274 10.4252 3.66865 10.1725C3.47455 9.91984 3.35695 9.61684 3.32976 9.29939C3.30258 8.98194 3.36695 8.66336 3.51526 8.38137C3.66357 8.09938 3.8896 7.86582 4.16657 7.70834C4.28499 7.81729 4.41332 7.91493 4.54991 8C4.74219 8.11051 4.97049 8.14011 5.1846 8.08228C5.3987 8.02446 5.58106 7.88395 5.69157 7.69167C5.80208 7.49939 5.83168 7.27108 5.77385 7.05698C5.71603 6.84288 5.57552 6.66051 5.38324 6.55C5.26593 6.48529 5.16809 6.39033 5.09991 6.275C5.02286 6.14121 4.98801 5.98727 4.99991 5.83334C4.99991 5.61232 5.0877 5.40036 5.24398 5.24408C5.40026 5.0878 5.61222 5 5.83324 5C5.89129 4.99191 5.95019 4.99191 6.00824 5C6.05235 5.1339 6.10525 5.26474 6.16657 5.39167C6.22101 5.48716 6.29381 5.57094 6.38076 5.63817C6.46772 5.70541 6.56712 5.75478 6.67324 5.78344C6.77935 5.8121 6.89009 5.81948 6.99907 5.80516C7.10805 5.79084 7.21313 5.7551 7.30824 5.7C7.49299 5.58884 7.62747 5.4104 7.68341 5.20217C7.73936 4.99393 7.71241 4.77212 7.60824 4.58334C7.53832 4.45551 7.5011 4.31237 7.49991 4.16667C7.49991 3.94566 7.5877 3.7337 7.74398 3.57742C7.90026 3.42114 8.11223 3.33334 8.33324 3.33334C8.55425 3.33334 8.76621 3.42114 8.92249 3.57742C9.07877 3.7337 9.16657 3.94566 9.16657 4.16667V7.125ZM15.5749 10.725C15.392 10.7977 15.1967 10.8345 14.9999 10.8333C14.7789 10.8333 14.5669 10.9211 14.4106 11.0774C14.2544 11.2337 14.1666 11.4457 14.1666 11.6667C14.1666 11.8877 14.2544 12.0996 14.4106 12.2559C14.5669 12.4122 14.7789 12.5 14.9999 12.5C15.1899 12.5003 15.3796 12.4835 15.5666 12.45C15.7368 12.7135 15.8293 13.0197 15.8332 13.3333C15.8332 13.7754 15.6576 14.1993 15.3451 14.5118C15.0325 14.8244 14.6086 15 14.1666 15C13.7732 15.0004 13.3925 14.8616 13.0916 14.6083C12.9214 14.4669 12.702 14.3988 12.4816 14.4192C12.2613 14.4395 12.058 14.5465 11.9166 14.7167C11.7751 14.8869 11.7071 15.1063 11.7274 15.3266C11.7477 15.547 11.8547 15.7502 12.0249 15.8917C12.1515 15.9928 12.2852 16.0847 12.4249 16.1667C12.3604 16.3144 12.2545 16.4403 12.1199 16.5291C11.9852 16.6178 11.8278 16.6656 11.6666 16.6667C11.4456 16.6667 11.2336 16.5789 11.0773 16.4226C10.921 16.2663 10.8332 16.0544 10.8332 15.8333V14.1667C10.8351 13.8256 10.9416 13.4933 11.1383 13.2146C11.335 12.9359 11.6125 12.7243 11.9332 12.6083C12.1432 12.5376 12.3165 12.3864 12.4149 12.1879C12.5134 11.9894 12.529 11.76 12.4582 11.55C12.3875 11.34 12.2363 11.1668 12.0378 11.0683C11.8393 10.9699 11.6099 10.9543 11.3999 11.025C11.2042 11.0987 11.0147 11.1879 10.8332 11.2917V10C10.8351 9.65891 10.9416 9.32659 11.1383 9.04792C11.335 8.76925 11.6125 8.55764 11.9332 8.44167C12.0372 8.40665 12.1332 8.3515 12.2159 8.27936C12.2985 8.20722 12.3662 8.11951 12.4149 8.02123C12.4637 7.92296 12.4926 7.81604 12.5 7.70659C12.5075 7.59714 12.4933 7.4873 12.4582 7.38334C12.4232 7.27937 12.3681 7.18333 12.2959 7.10068C12.2238 7.01803 12.1361 6.9504 12.0378 6.90165C11.9395 6.8529 11.8326 6.82398 11.7232 6.81655C11.6137 6.80912 11.5039 6.82332 11.3999 6.85834C11.2042 6.93202 11.0147 7.0212 10.8332 7.125V4.16667C10.8332 3.94566 10.921 3.7337 11.0773 3.57742C11.2336 3.42114 11.4456 3.33334 11.6666 3.33334C11.8876 3.33334 12.0995 3.42114 12.2558 3.57742C12.4121 3.7337 12.4999 3.94566 12.4999 4.16667C12.4987 4.31237 12.4615 4.45551 12.3916 4.58334C12.3361 4.67795 12.2999 4.78258 12.285 4.89122C12.27 4.99986 12.2767 5.11038 12.3046 5.21645C12.3325 5.32251 12.381 5.42203 12.4474 5.5093C12.5138 5.59657 12.5968 5.66987 12.6916 5.725C12.7867 5.7801 12.8918 5.81584 13.0007 5.83016C13.1097 5.84448 13.2205 5.8371 13.3266 5.80844C13.4327 5.77978 13.5321 5.73041 13.619 5.66317C13.706 5.59594 13.7788 5.51216 13.8332 5.41667C13.8956 5.28162 13.9485 5.1424 13.9916 5C14.0496 4.99191 14.1085 4.99191 14.1666 5C14.3876 5 14.5995 5.0878 14.7558 5.24408C14.9121 5.40036 14.9999 5.61232 14.9999 5.83334C14.9986 5.9967 14.9494 6.15608 14.8582 6.29167C14.7901 6.39981 14.6954 6.48873 14.5832 6.55C14.391 6.66051 14.2504 6.84288 14.1926 7.05698C14.1348 7.27108 14.1644 7.49939 14.2749 7.69167C14.3854 7.88395 14.5678 8.02446 14.7819 8.08228C14.996 8.14011 15.2243 8.11051 15.4166 8C15.5662 7.91909 15.706 7.82122 15.8332 7.70834C16.1112 7.86303 16.339 8.09402 16.4899 8.37403C16.6407 8.65404 16.7083 8.97138 16.6847 9.28857C16.661 9.60576 16.5471 9.90955 16.3564 10.1641C16.1656 10.4186 15.906 10.6132 15.6082 10.725H15.5749Z" fill="#fff"/>
</g>
</svg>
