<svg width="24" height="24" viewBox="0 0 24 24" fill="none" xmlns="http://www.w3.org/2000/svg">
<g id="la:certificate">
<path id="Vector" d="M12 2.25C11.5312 2.25 11.0655 2.4075 10.6642 2.6955L9.42225 3.5625L7.99125 3.75H7.968L7.94475 3.77325C7.47542 3.87924 7.04575 4.11607 6.70553 4.45628C6.36531 4.7965 6.12848 5.22618 6.0225 5.6955L6 5.71875V5.742L5.8125 7.1955L4.9455 8.3205L4.9215 8.34375V8.367C4.39725 9.20475 4.374 10.2863 4.9455 11.0858L5.83575 12.3278L6.0705 13.6178L3.65625 17.2965L2.883 18.4455H6.46875L7.33575 20.4608L7.875 21.75L8.64825 20.5778L11.0152 17.0153C11.6512 17.2762 12.369 17.3003 12.9847 17.0153L15.3517 20.5778L16.125 21.75L16.6642 20.4608L17.5312 18.4455H21.117L20.3437 17.2965L18 13.7347L18.1875 12.3285L19.0545 11.0865L19.0785 11.0633V11.04C19.6027 10.2023 19.626 9.144 19.0545 8.3445L18.1875 7.10175L17.9062 5.6955H17.9295C17.9265 5.6775 17.9092 5.6655 17.9062 5.64825C17.7712 4.66725 16.995 3.87075 16.008 3.75H15.984L14.5777 3.5625L13.3357 2.6955C12.9478 2.41134 12.4808 2.25557 12 2.25ZM12 3.77325C12.1725 3.77325 12.3427 3.82575 12.4687 3.91425L13.8045 4.875L13.9687 4.992L14.1562 5.016L15.7972 5.25H15.8197C16.1572 5.2875 16.3912 5.52225 16.4295 5.85975V5.90625L16.7347 7.5705L16.7572 7.73475L16.875 7.875L17.8357 9.21075C18.015 9.45975 18.0382 9.882 17.8125 10.242L16.758 11.7188L16.734 11.9062L16.5 13.5472V13.5697C16.4875 13.687 16.4474 13.7995 16.383 13.8983L16.3357 13.9222V13.9447C16.2243 14.0786 16.0644 14.163 15.891 14.1795H15.8437L14.133 14.4847L13.9455 14.5072L13.8045 14.625L12.4687 15.5858C12.2197 15.765 11.7742 15.7882 11.4142 15.5625L10.1955 14.625L10.0545 14.508L9.84375 14.484L8.20275 14.25H8.18025C8.0742 14.2406 7.97196 14.2059 7.88215 14.1487C7.79234 14.0916 7.71761 14.0136 7.66425 13.9215C7.61441 13.835 7.58252 13.7393 7.5705 13.6403V13.5938L7.266 11.883L7.242 11.6955L7.125 11.5545L6.16425 10.2188C5.985 9.96975 5.96175 9.52425 6.1875 9.16425L7.125 7.9455L7.242 7.8045L7.26525 7.59375L7.47675 6.02325C7.47975 6.012 7.497 6.012 7.5 6C7.54675 5.81946 7.64095 5.65471 7.77283 5.52283C7.9047 5.39096 8.06945 5.29676 8.25 5.25C8.262 5.247 8.262 5.22975 8.27325 5.22675L9.84375 5.01525L10.0312 4.99275L10.1955 4.875L11.5312 3.91425C11.6572 3.8265 11.8275 3.77325 12 3.77325ZM17.1795 15.1875L18.3285 16.9455H16.5225L16.335 17.4142L15.8197 18.609L14.226 16.1715L14.577 15.9142L16.0545 15.6562V15.6795C16.0717 15.6765 16.083 15.6593 16.101 15.6562C16.4957 15.5993 16.8687 15.4374 17.1795 15.1875ZM6.8205 15.2108C7.14616 15.5068 7.55529 15.6952 7.992 15.75H8.01525L9.4455 15.9375L9.77325 16.1955L8.1795 18.609L7.66425 17.4142L7.47675 16.9455H5.67225L6.8205 15.2108Z" fill="#fff"/>
</g>
</svg>
