<svg width="28" height="28" viewBox="0 0 28 28" fill="none" xmlns="http://www.w3.org/2000/svg">
<g id="fluent:chat-16-regular">
<path id="Vector" d="M10.5 12.25C10.5 12.0179 10.5922 11.7954 10.7563 11.6313C10.9204 11.4672 11.1429 11.375 11.375 11.375H16.625C16.8571 11.375 17.0796 11.4672 17.2437 11.6313C17.4078 11.7954 17.5 12.0179 17.5 12.25C17.5 12.4821 17.4078 12.7046 17.2437 12.8687C17.0796 13.0328 16.8571 13.125 16.625 13.125H11.375C11.1429 13.125 10.9204 13.0328 10.7563 12.8687C10.5922 12.7046 10.5 12.4821 10.5 12.25ZM11.375 14.875C11.1429 14.875 10.9204 14.9672 10.7563 15.1313C10.5922 15.2954 10.5 15.5179 10.5 15.75C10.5 15.9821 10.5922 16.2046 10.7563 16.3687C10.9204 16.5328 11.1429 16.625 11.375 16.625H14.875C15.1071 16.625 15.3296 16.5328 15.4937 16.3687C15.6578 16.2046 15.75 15.9821 15.75 15.75C15.75 15.5179 15.6578 15.2954 15.4937 15.1313C15.3296 14.9672 15.1071 14.875 14.875 14.875H11.375ZM3.49999 14C3.50044 11.6883 4.26374 9.44141 5.67148 7.60781C7.07922 5.77422 9.05271 4.45643 11.2858 3.85888C13.5189 3.26133 15.8868 3.41742 18.0221 4.30293C20.1575 5.18844 21.9409 6.75388 23.0958 8.7564C24.2507 10.7589 24.7124 13.0866 24.4094 15.3783C24.1064 17.67 23.0556 19.7977 21.42 21.4313C19.7843 23.0649 17.6554 24.113 15.3633 24.4131C13.0712 24.7133 10.7441 24.2486 8.74299 23.0912L4.65149 24.4562C4.50033 24.5067 4.33826 24.5149 4.18276 24.48C4.02727 24.4451 3.88426 24.3684 3.76917 24.2582C3.65407 24.148 3.57127 24.0084 3.52969 23.8546C3.48812 23.7007 3.48934 23.5384 3.53324 23.3852L4.77924 19.026C3.93928 17.484 3.49945 15.7559 3.49999 14ZM14 5.24999C12.4551 5.24989 10.9376 5.65884 9.60199 6.43527C8.26634 7.21171 7.16007 8.32793 6.39563 9.67049C5.6312 11.013 5.23586 12.5341 5.2498 14.0789C5.26374 15.6238 5.68646 17.1374 6.47499 18.466C6.53566 18.5686 6.57472 18.6826 6.58977 18.8008C6.60481 18.9191 6.59553 19.0392 6.56249 19.1537L5.67174 22.2687L8.57324 21.3027C8.69647 21.2616 8.8273 21.2484 8.95625 21.2642C9.0852 21.2799 9.20903 21.3242 9.31874 21.3937C10.4655 22.1195 11.7653 22.5685 13.1154 22.7054C14.4656 22.8422 15.829 22.6632 17.0981 22.1824C18.3671 21.7016 19.5069 20.9322 20.4274 19.935C21.3479 18.9378 22.0238 17.7402 22.4018 16.4369C22.7797 15.1335 22.8493 13.7601 22.6051 12.4252C22.3608 11.0903 21.8094 9.83046 20.9945 8.74534C20.1795 7.66023 19.1233 6.77955 17.9094 6.17291C16.6955 5.56627 15.3571 5.25031 14 5.24999Z" fill="#fff"/>
</g>
</svg>
