<svg width="20" height="20" viewBox="0 0 20 20" fill="none" xmlns="http://www.w3.org/2000/svg">
<g id="ep:arrow-up-bold">
<path id="Vector" d="M13.3837 17.9549C13.6181 17.7205 13.7497 17.4026 13.7497 17.0712C13.7497 16.7397 13.6181 16.4218 13.3837 16.1874L7.19625 9.99994L13.3837 3.81244C13.6114 3.57669 13.7374 3.26093 13.7346 2.93319C13.7317 2.60544 13.6003 2.29193 13.3685 2.06017C13.1368 1.8284 12.8232 1.69694 12.4955 1.6941C12.1678 1.69125 11.852 1.81724 11.6162 2.04494L4.545 9.11619C4.31066 9.3506 4.17902 9.66848 4.17902 9.99994C4.17902 10.3314 4.31066 10.6493 4.545 10.8837L11.6163 17.9549C11.8507 18.1893 12.1685 18.3209 12.5 18.3209C12.8315 18.3209 13.1493 18.1893 13.3837 17.9549Z" fill="#fff"/>
</g>
</svg>
