<svg width="20" height="20" viewBox="0 0 20 20" fill="none" xmlns="http://www.w3.org/2000/svg">
<g id="ep:arrow-up-bold">
<path id="Vector" d="M6.61625 2.04506C6.38191 2.27947 6.25027 2.59735 6.25027 2.92881C6.25027 3.26026 6.38191 3.57815 6.61625 3.81256L12.8038 10.0001L6.61625 16.1876C6.38855 16.4233 6.26256 16.7391 6.26541 17.0668C6.26826 17.3946 6.39972 17.7081 6.63148 17.9398C6.86324 18.1716 7.17675 18.3031 7.5045 18.3059C7.83224 18.3087 8.148 18.1828 8.38375 17.9551L15.455 10.8838C15.6893 10.6494 15.821 10.3315 15.821 10.0001C15.821 9.6686 15.6893 9.35072 15.455 9.11631L8.38375 2.04506C8.14934 1.81072 7.83146 1.67908 7.5 1.67908C7.16854 1.67908 6.85066 1.81072 6.61625 2.04506Z" fill="#fff"/>
</g>
</svg>
