<svg width="20" height="20" viewBox="0 0 20 20" fill="none" xmlns="http://www.w3.org/2000/svg">
<g id="streamline:computer-chip-1">
<path id="Vector" d="M7.14287 4.28566V0.714233M12.8572 4.28566V0.714233M4.28572 12.8571H0.714294M4.28572 7.1428H0.714294M12.8572 15.7142V19.2857M7.14287 15.7142V19.2857M15.7143 7.1428H19.2857M15.7143 12.8571H19.2857M12.1429 10.7142H9.28572M14.2857 4.28566H5.71429C5.33541 4.28566 4.97205 4.43617 4.70414 4.70408C4.43623 4.97199 4.28572 5.33535 4.28572 5.71423V14.2857C4.28572 14.6645 4.43623 15.0279 4.70414 15.2958C4.97205 15.5637 5.33541 15.7142 5.71429 15.7142H14.2857C14.6646 15.7142 15.028 15.5637 15.2959 15.2958C15.5638 15.0279 15.7143 14.6645 15.7143 14.2857V5.71423C15.7143 5.33535 15.5638 4.97199 15.2959 4.70408C15.028 4.43617 14.6646 4.28566 14.2857 4.28566Z" stroke="#fff" stroke-width="1.42857" stroke-linecap="round" stroke-linejoin="round"/>
</g>
</svg>
