<svg width="24" height="24" viewBox="0 0 24 24" fill="none" xmlns="http://www.w3.org/2000/svg">
<g id="solar:cup-star-outline">
<g id="Group">
<path id="Vector" fill-rule="evenodd" clip-rule="evenodd" d="M11.014 4.8C11.186 4.575 11.498 4.25 12 4.25C12.502 4.25 12.814 4.575 12.986 4.8C13.151 5.014 13.316 5.311 13.486 5.616L13.607 5.834L13.664 5.934L13.763 5.957L14.001 6.011C14.328 6.085 14.654 6.158 14.904 6.257C15.18 6.366 15.554 6.577 15.699 7.042C15.841 7.497 15.662 7.883 15.506 8.132C15.361 8.362 15.141 8.618 14.916 8.881L14.756 9.069L14.674 9.166C14.676 9.202 14.681 9.244 14.686 9.301L14.71 9.551C14.744 9.902 14.777 10.242 14.765 10.514C14.753 10.8 14.685 11.232 14.297 11.525C13.897 11.829 13.457 11.763 13.177 11.682C12.919 11.609 12.614 11.468 12.307 11.327L12.085 11.224L12 11.185L11.915 11.225L11.692 11.327C11.386 11.468 11.081 11.609 10.823 11.682C10.543 11.762 10.103 11.829 9.70298 11.525C9.31598 11.232 9.24698 10.8 9.23498 10.515C9.22298 10.242 9.25498 9.902 9.28998 9.55L9.31398 9.3L9.32698 9.166C9.29952 9.1335 9.27185 9.10116 9.24398 9.069L9.08398 8.881C8.85898 8.618 8.63898 8.361 8.49398 8.131C8.33798 7.883 8.15898 7.497 8.30098 7.041C8.44498 6.578 8.81998 6.366 9.09598 6.257C9.34598 6.158 9.67198 6.085 9.99898 6.011L10.237 5.957L10.337 5.934L10.393 5.834L10.514 5.616C10.684 5.311 10.849 5.014 11.014 4.8ZM12 6.034C11.942 6.135 11.877 6.251 11.801 6.388L11.703 6.564L11.68 6.604C11.602 6.748 11.472 6.986 11.255 7.151C11.034 7.319 10.767 7.377 10.612 7.411L10.568 7.42L10.378 7.463C10.202 7.503 10.059 7.535 9.93798 7.566C10.017 7.663 10.12 7.785 10.254 7.942L10.384 8.094L10.414 8.128C10.522 8.253 10.696 8.453 10.777 8.713C10.857 8.969 10.829 9.233 10.812 9.399L10.807 9.446L10.787 9.649C10.7716 9.8022 10.7576 9.95554 10.745 10.109C10.85 10.063 10.968 10.009 11.109 9.944L11.288 9.862L11.328 9.842C11.472 9.775 11.721 9.657 12 9.657C12.279 9.657 12.528 9.775 12.672 9.843L12.712 9.862L12.891 9.944C13.031 10.009 13.151 10.064 13.255 10.109C13.2424 9.95554 13.2284 9.8022 13.213 9.649L13.193 9.446L13.188 9.399C13.171 9.232 13.143 8.969 13.223 8.713C13.303 8.453 13.478 8.253 13.586 8.128L13.616 8.094L13.746 7.942C13.88 7.785 13.983 7.663 14.062 7.566C13.941 7.536 13.798 7.503 13.622 7.463L13.432 7.42L13.388 7.41C13.233 7.377 12.966 7.319 12.745 7.15C12.528 6.986 12.398 6.748 12.32 6.605L12.297 6.564L12.199 6.388C12.123 6.251 12.059 6.135 12 6.034Z" fill="#fff"/>
<path id="Vector_2" fill-rule="evenodd" clip-rule="evenodd" d="M7.498 1.607C8.98613 1.36305 10.492 1.24364 12 1.25C13.828 1.25 15.339 1.411 16.502 1.607L16.637 1.63C17.647 1.799 18.487 1.94 19.143 2.748C19.564 3.267 19.7 3.828 19.731 4.453L20.223 4.617C20.686 4.771 21.093 4.907 21.414 5.057C21.762 5.219 22.081 5.427 22.325 5.766C22.569 6.104 22.666 6.473 22.71 6.854C22.75 7.207 22.75 7.634 22.75 8.124V8.268C22.75 8.67 22.75 9.025 22.72 9.322C22.688 9.643 22.617 9.956 22.44 10.258C22.261 10.561 22.022 10.775 21.757 10.959C21.512 11.129 21.202 11.302 20.85 11.497L18.21 12.964C17.67 14.025 16.93 14.971 15.91 15.654C15.035 16.241 13.988 16.613 12.75 16.719V18.75H14.18C14.5846 18.75 14.9767 18.8902 15.2895 19.1467C15.6024 19.4033 15.8167 19.7603 15.896 20.157L16.115 21.25H18C18.1989 21.25 18.3897 21.329 18.5303 21.4697C18.671 21.6103 18.75 21.8011 18.75 22C18.75 22.1989 18.671 22.3897 18.5303 22.5303C18.3897 22.671 18.1989 22.75 18 22.75H6C5.80109 22.75 5.61032 22.671 5.46967 22.5303C5.32902 22.3897 5.25 22.1989 5.25 22C5.25 21.8011 5.32902 21.6103 5.46967 21.4697C5.61032 21.329 5.80109 21.25 6 21.25H7.885L8.104 20.157C8.1833 19.7603 8.39761 19.4033 8.71047 19.1467C9.02334 18.8902 9.41542 18.75 9.82 18.75H11.25V16.719C10.012 16.613 8.965 16.241 8.09 15.655C7.071 14.971 6.33 14.025 5.79 12.964L3.15 11.497C2.83935 11.3321 2.53668 11.1525 2.243 10.959C1.96643 10.7793 1.73343 10.5402 1.561 10.259C1.39858 9.97155 1.30256 9.65139 1.28 9.322C1.25 9.025 1.25 8.67 1.25 8.268V8.123C1.25 7.635 1.25 7.207 1.29 6.854C1.334 6.473 1.43 6.104 1.675 5.766C1.919 5.427 2.238 5.219 2.585 5.056C2.908 4.906 3.314 4.771 3.777 4.617L4.269 4.453C4.3 3.827 4.436 3.267 4.857 2.748C5.514 1.939 6.353 1.798 7.364 1.63L7.498 1.607ZM9.415 21.25H14.585L14.425 20.451C14.4137 20.3943 14.3831 20.3434 14.3384 20.3067C14.2938 20.2701 14.2378 20.25 14.18 20.25H9.82C9.76223 20.25 9.70625 20.2701 9.66158 20.3067C9.61692 20.3434 9.58632 20.3943 9.575 20.451L9.415 21.25ZM4.302 6.023L4.288 6.028C3.778 6.198 3.454 6.308 3.218 6.417C3.001 6.517 2.931 6.588 2.892 6.643C2.852 6.697 2.808 6.786 2.781 7.024C2.751 7.282 2.75 7.624 2.75 8.162V8.235C2.75 8.68 2.75 8.959 2.772 9.173C2.792 9.369 2.824 9.448 2.854 9.498C2.883 9.548 2.936 9.614 3.098 9.727C3.274 9.849 3.518 9.985 3.908 10.202L4.973 10.794C4.545 9.224 4.373 7.544 4.303 6.024M19.028 10.794C19.456 9.224 19.628 7.544 19.699 6.024L19.713 6.029C20.223 6.199 20.547 6.309 20.783 6.418C21 6.518 21.07 6.589 21.109 6.644C21.149 6.698 21.193 6.787 21.22 7.025C21.25 7.283 21.251 7.625 21.251 8.163V8.236C21.251 8.681 21.251 8.96 21.229 9.174C21.209 9.37 21.177 9.449 21.147 9.499C21.118 9.549 21.065 9.615 20.903 9.728C20.726 9.85 20.483 9.986 20.093 10.203L19.028 10.794ZM12 2.75C10.26 2.75 8.833 2.903 7.748 3.086C6.541 3.29 6.288 3.366 6.022 3.694C5.76 4.016 5.735 4.322 5.788 5.677C5.878 7.935 6.176 10.373 7.098 12.227C7.554 13.141 8.15 13.889 8.926 14.409C9.696 14.926 10.691 15.25 12 15.25C13.31 15.25 14.304 14.926 15.075 14.409C15.851 13.889 16.446 13.141 16.901 12.226C17.824 10.373 18.122 7.936 18.211 5.676C18.266 4.322 18.241 4.016 17.979 3.694C17.713 3.366 17.459 3.29 16.252 3.086C14.8465 2.85604 13.4242 2.74365 12 2.75Z" fill="#fff"/>
</g>
</g>
</svg>
