<svg width="28" height="28" viewBox="0 0 28 28" fill="none" xmlns="http://www.w3.org/2000/svg">
<g id="lets-icons:home">
<g id="Group">
<path id="Vector" d="M5.83337 14.8867C5.83337 13.3023 5.83337 12.5102 6.15304 11.8137C6.47387 11.1172 7.07471 10.6027 8.27754 9.57133L9.44421 8.57149C11.62 6.70833 12.705 5.77499 14 5.77499C15.295 5.77499 16.3812 6.70716 18.5559 8.57033L19.7225 9.57016C20.9242 10.6015 21.5262 11.116 21.8459 11.8125C22.1667 12.509 22.1667 13.3012 22.1667 14.8855V19.8333C22.1667 22.0337 22.1667 23.1327 21.483 23.8163C20.7994 24.5 19.7004 24.5 17.5 24.5H10.5C8.29971 24.5 7.20071 24.5 6.51704 23.8163C5.83337 23.1327 5.83337 22.0337 5.83337 19.8333V14.8867Z" stroke="#fff" stroke-width="2"/>
<path id="Vector_2" d="M16.9167 24.5V18.6667C16.9167 18.3572 16.7938 18.0605 16.575 17.8417C16.3562 17.6229 16.0595 17.5 15.75 17.5H12.25C11.9406 17.5 11.6439 17.6229 11.4251 17.8417C11.2063 18.0605 11.0834 18.3572 11.0834 18.6667V24.5" stroke="#fff" stroke-width="2" stroke-linecap="round" stroke-linejoin="round"/>
</g>
</g>
</svg>
