<svg width="20" height="21" viewBox="0 0 20 21" fill="none" xmlns="http://www.w3.org/2000/svg">
<g id="ph:microphone">
<path id="Vector" d="M10 14.25C10.9942 14.249 11.9475 13.8535 12.6505 13.1505C13.3535 12.4475 13.749 11.4942 13.75 10.5V5.5C13.75 4.50544 13.3549 3.55161 12.6517 2.84835C11.9484 2.14509 10.9946 1.75 10 1.75C9.00544 1.75 8.05161 2.14509 7.34835 2.84835C6.64509 3.55161 6.25 4.50544 6.25 5.5V10.5C6.25103 11.4942 6.64645 12.4475 7.34949 13.1505C8.05253 13.8535 9.00576 14.249 10 14.25ZM7.5 5.5C7.5 4.83696 7.76339 4.20107 8.23223 3.73223C8.70107 3.26339 9.33696 3 10 3C10.663 3 11.2989 3.26339 11.7678 3.73223C12.2366 4.20107 12.5 4.83696 12.5 5.5V10.5C12.5 11.163 12.2366 11.7989 11.7678 12.2678C11.2989 12.7366 10.663 13 10 13C9.33696 13 8.70107 12.7366 8.23223 12.2678C7.76339 11.7989 7.5 11.163 7.5 10.5V5.5ZM10.625 16.7188V19.25C10.625 19.4158 10.5592 19.5747 10.4419 19.6919C10.3247 19.8092 10.1658 19.875 10 19.875C9.83424 19.875 9.67527 19.8092 9.55806 19.6919C9.44085 19.5747 9.375 19.4158 9.375 19.25V16.7188C7.8341 16.562 6.40607 15.8393 5.36707 14.6907C4.32806 13.542 3.7519 12.0489 3.75 10.5C3.75 10.3342 3.81585 10.1753 3.93306 10.0581C4.05027 9.94085 4.20924 9.875 4.375 9.875C4.54076 9.875 4.69973 9.94085 4.81694 10.0581C4.93415 10.1753 5 10.3342 5 10.5C5 11.8261 5.52678 13.0979 6.46447 14.0355C7.40215 14.9732 8.67392 15.5 10 15.5C11.3261 15.5 12.5979 14.9732 13.5355 14.0355C14.4732 13.0979 15 11.8261 15 10.5C15 10.3342 15.0658 10.1753 15.1831 10.0581C15.3003 9.94085 15.4592 9.875 15.625 9.875C15.7908 9.875 15.9497 9.94085 16.0669 10.0581C16.1842 10.1753 16.25 10.3342 16.25 10.5C16.2481 12.0489 15.6719 13.542 14.6329 14.6907C13.5939 15.8393 12.1659 16.562 10.625 16.7188Z" fill="#fff"/>
</g>
</svg>
