<svg width="20" height="20" viewBox="0 0 20 20" fill="none" xmlns="http://www.w3.org/2000/svg">
<g id="iconamoon:notification">
<g id="Group">
<path id="Vector" d="M4.99998 15.8333V8.33325C4.99998 7.00717 5.52676 5.7354 6.46445 4.79772C7.40213 3.86004 8.6739 3.33325 9.99998 3.33325C11.3261 3.33325 12.5978 3.86004 13.5355 4.79772C14.4732 5.7354 15 7.00717 15 8.33325V15.8333M4.99998 15.8333H15M4.99998 15.8333H3.33331M15 15.8333H16.6666M9.16665 18.3333H10.8333" stroke="#fff" stroke-width="1.66667" stroke-linecap="round" stroke-linejoin="round"/>
<path id="Vector_2" d="M9.99996 3.33329C10.4602 3.33329 10.8333 2.9602 10.8333 2.49996C10.8333 2.03972 10.4602 1.66663 9.99996 1.66663C9.53972 1.66663 9.16663 2.03972 9.16663 2.49996C9.16663 2.9602 9.53972 3.33329 9.99996 3.33329Z" stroke="#fff" stroke-width="1.66667"/>
</g>
</g>
</svg>
