<svg width="16" height="16" viewBox="0 0 16 16" fill="none" xmlns="http://www.w3.org/2000/svg">
<g id="iconamoon:profile">
<g id="Group">
<path id="Vector" d="M2.66669 12C2.66669 11.2927 2.94764 10.6145 3.44774 10.1144C3.94783 9.61426 4.62611 9.33331 5.33335 9.33331H10.6667C11.3739 9.33331 12.0522 9.61426 12.5523 10.1144C13.0524 10.6145 13.3334 11.2927 13.3334 12C13.3334 12.3536 13.1929 12.6927 12.9428 12.9428C12.6928 13.1928 12.3536 13.3333 12 13.3333H4.00002C3.6464 13.3333 3.30726 13.1928 3.05721 12.9428C2.80716 12.6927 2.66669 12.3536 2.66669 12Z" stroke="#fff" stroke-linejoin="round"/>
<path id="Vector_2" d="M8 6.66666C9.10457 6.66666 10 5.77123 10 4.66666C10 3.56209 9.10457 2.66666 8 2.66666C6.89543 2.66666 6 3.56209 6 4.66666C6 5.77123 6.89543 6.66666 8 6.66666Z" stroke="#fff"/>
</g>
</g>
</svg>
