<svg width="10" height="8" viewBox="0 0 10 8" fill="none" xmlns="http://www.w3.org/2000/svg">
<path id="Star background" d="M4.53834 0.359964C4.70914 -0.0506818 5.29086 -0.050682 5.46166 0.359964L6.20523 2.14773C6.27724 2.32085 6.44004 2.43913 6.62694 2.45412L8.55698 2.60885C9.00031 2.64439 9.18007 3.19764 8.8423 3.48698L7.37181 4.74661C7.22942 4.86859 7.16723 5.05997 7.21074 5.24235L7.66 7.12575C7.76319 7.55836 7.29256 7.90029 6.91301 7.66846L5.26063 6.65919C5.10062 6.56146 4.89938 6.56146 4.73937 6.65919L3.08699 7.66846C2.70744 7.90029 2.23681 7.55836 2.34 7.12575L2.78926 5.24235C2.83277 5.05997 2.77058 4.86859 2.62819 4.74661L1.1577 3.48698C0.819927 3.19764 0.99969 2.64439 1.44302 2.60885L3.37306 2.45412C3.55996 2.43913 3.72276 2.32085 3.79477 2.14773L4.53834 0.359964Z" fill="#fff"/>
</svg>
