<svg width="28" height="28" viewBox="0 0 28 28" fill="none" xmlns="http://www.w3.org/2000/svg">
<g id="whatsapp">
<rect x="1.25" y="1.25" width="25.5" height="25.5" stroke="white" stroke-width="1.5"/>
<path id="border" fill-rule="evenodd" clip-rule="evenodd" d="M14 25.25C19.799 25.25 24.5 20.549 24.5 14.75C24.5 8.95101 19.799 4.25 14 4.25C8.20101 4.25 3.5 8.95101 3.5 14.75C3.5 16.6332 3.99575 18.4005 4.86386 19.9287L3.5 25.25L8.98615 23.9778C10.476 24.7891 12.1842 25.25 14 25.25ZM14 23.6346C18.9068 23.6346 22.8846 19.6568 22.8846 14.75C22.8846 9.84316 18.9068 5.86538 14 5.86538C9.09316 5.86538 5.11538 9.84316 5.11538 14.75C5.11538 16.6445 5.70838 18.4006 6.71888 19.8427L5.92308 22.8269L8.95995 22.0677C10.392 23.0559 12.1284 23.6346 14 23.6346Z" fill="#BFC8D0"/>
<path id="bg" d="M23 14C23 18.9706 18.9706 23 14 23C12.1041 23 10.3452 22.4138 8.89449 21.4127L5.81818 22.1818L6.62432 19.1588C5.60069 17.698 5 15.9192 5 14C5 9.02944 9.02944 5 14 5C18.9706 5 23 9.02944 23 14Z" fill="url(#paint0_linear_224_10914)"/>
<path id="border_2" fill-rule="evenodd" clip-rule="evenodd" d="M14 24.5C19.799 24.5 24.5 19.799 24.5 14C24.5 8.20101 19.799 3.5 14 3.5C8.20101 3.5 3.5 8.20101 3.5 14C3.5 15.8832 3.99575 17.6505 4.86386 19.1787L3.5 24.5L8.98615 23.2278C10.476 24.0391 12.1842 24.5 14 24.5ZM14 22.8846C18.9068 22.8846 22.8846 18.9068 22.8846 14C22.8846 9.09316 18.9068 5.11538 14 5.11538C9.09316 5.11538 5.11538 9.09316 5.11538 14C5.11538 15.8945 5.70838 17.6506 6.71888 19.0927L5.92308 22.0769L8.95995 21.3177C10.392 22.3059 12.1284 22.8846 14 22.8846Z" fill="white"/>
<path id="phone" d="M11.375 9.12504C11.1254 8.6236 10.7424 8.668 10.3555 8.668C9.66407 8.668 8.58594 9.49621 8.58594 11.0376C8.58594 12.3008 9.14259 13.6836 11.0183 15.7522C12.8285 17.7485 15.207 18.7812 17.1817 18.7461C19.1563 18.7109 19.5625 17.0117 19.5625 16.4379C19.5625 16.1835 19.4047 16.0566 19.296 16.0221C18.6231 15.6992 17.382 15.0975 17.0996 14.9844C16.8172 14.8714 16.6698 15.0243 16.5781 15.1075C16.3221 15.3515 15.8144 16.0707 15.6406 16.2325C15.4668 16.3942 15.2077 16.3124 15.0999 16.2512C14.7031 16.092 13.6272 15.6134 12.7696 14.7821C11.709 13.754 11.6467 13.4002 11.4469 13.0854C11.2871 12.8335 11.4044 12.6789 11.4629 12.6114C11.6914 12.3477 12.007 11.9406 12.1485 11.7383C12.29 11.536 12.1776 11.2289 12.1102 11.0376C11.8203 10.2149 11.5747 9.52618 11.375 9.12504Z" fill="white"/>
</g>
<defs>
<linearGradient id="paint0_linear_224_10914" x1="21.875" y1="7.25" x2="5" y2="23" gradientUnits="userSpaceOnUse">
<stop stop-color="#5BD066"/>
<stop offset="1" stop-color="#27B43E"/>
</linearGradient>
</defs>
</svg>
